<?xml version="1.0"?>
<svg width="512" height="512" xmlns="http://www.w3.org/2000/svg" xmlns:svg="http://www.w3.org/2000/svg" preserveAspectRatio="xMidYMid meet" version="1.0">
 <g class="layer">
  <title>Layer 1</title>
  <g fill="#000000" id="svg_1" transform="matrix(0.05 0 0 -0.05 -0.5 0.5)">
   <path d="m4167,-3372l-26,-43l72,-64c123,-109 372,-364 360,-368c-12,-4 -348,80 -465,117c-53,16 -65,17 -77,6c-11,-12 -7,-18 26,-40c64,-42 197,-94 349,-136c229,-63 247,-72 272,-128c28,-61 47,-135 62,-247c18,-137 -1,-645 -30,-780c-26,-121 -96,-336 -144,-441c-20,-42 -36,-83 -36,-90c0,-23 52,-75 101,-100c101,-50 245,-68 344,-40c28,7 92,25 143,39c51,14 145,31 210,37c166,16 176,20 180,55c5,44 -11,90 -105,289c-145,308 -191,481 -179,676c7,127 33,259 79,402c33,103 38,112 123,210c48,57 138,154 201,216c62,63 113,115 113,117c0,1 -9,5 -21,8c-16,4 -52,-20 -151,-100l-130,-105l28,51c16,28 55,87 86,132l58,80l-20,37c-23,43 -24,63 -6,115c8,20 12,37 10,37c-3,0 -21,-11 -42,-24c-20,-13 -54,-29 -74,-36c-29,-9 -39,-19 -48,-46c-7,-20 -49,-77 -93,-128c-45,-50 -128,-146 -184,-212c-108,-127 -147,-159 -164,-134c-24,38 -94,290 -114,410c-4,26 -14,41 -40,58c-20,12 -44,36 -54,53c-13,20 -20,26 -24,16c-5,-13 -20,-107 -35,-218l-7,-56l-56,62c-54,60 -56,64 -63,135c-3,41 -8,74 -9,75c-1,1 -21,0 -44,-3c-37,-4 -43,-7 -43,-28c0,-22 -7,-19 -97,43c-157,107 -197,133 -204,133c-4,0 -18,-19 -32,-42z" id="svg_2"/>
  </g>
 </g>
</svg>